<svg width="10" height="7" viewBox="0 0 10 7" fill="none" xmlns="http://www.w3.org/2000/svg">
<path d="M0.810525 0.326172H9.18952C9.33784 0.326204 9.48281 0.370207 9.60612 0.45262C9.72943 0.535033 9.82553 0.652156 9.88228 0.78918C9.93904 0.926205 9.95389 1.07698 9.92496 1.22244C9.89604 1.36791 9.82463 1.50153 9.71977 1.60642L5.53027 5.79591C5.38963 5.93651 5.1989 6.0155 5.00002 6.0155C4.80115 6.0155 4.61042 5.93651 4.46977 5.79591L0.280274 1.60642C0.175417 1.50153 0.104012 1.36791 0.0750868 1.22244C0.0461611 1.07698 0.0610135 0.926205 0.117766 0.78918C0.174519 0.652156 0.270623 0.535033 0.393931 0.45262C0.517238 0.370207 0.662212 0.326204 0.810525 0.326172Z" fill="#858D9D"/>
</svg>
