<svg width="18" height="18" viewBox="0 0 18 18" fill="none" xmlns="http://www.w3.org/2000/svg">
<g clip-path="url(#clip0_2137_2454)">
<path d="M14.5202 4.51095L12.1008 2.09012C11.1821 1.17206 9.96122 0.666504 8.6633 0.666504H5.52789C3.6133 0.666504 2.05566 2.22414 2.05566 4.13873V13.8609C2.05566 15.7755 3.6133 17.3332 5.52789 17.3332H12.4723C14.3869 17.3332 15.9446 15.7755 15.9446 13.8609V7.94775C15.9446 6.64845 15.4383 5.429 14.5202 4.51095ZM13.5383 5.49359C13.7591 5.71373 13.9459 5.95887 14.0973 6.22275H11.0827C10.6994 6.22275 10.3883 5.91095 10.3883 5.52831V2.51303C10.6522 2.66442 10.8973 2.85123 11.1182 3.07206L13.5376 5.49289L13.5383 5.49359ZM14.5557 13.8616C14.5557 15.0103 13.6209 15.945 12.4723 15.945H5.52789C4.37928 15.945 3.44455 15.0103 3.44455 13.8616V4.13873C3.44455 2.99012 4.37928 2.05539 5.52789 2.05539H8.6633C8.7765 2.05539 8.889 2.06095 9.00011 2.07137V5.52762C9.00011 6.67623 9.93483 7.61095 11.0834 7.61095H14.5397C14.5501 7.72206 14.5557 7.83456 14.5557 7.94775V13.8616ZM11.5744 11.8512C11.8459 12.1221 11.8459 12.5616 11.5744 12.8332L10.4543 13.954C10.0536 14.3547 9.5265 14.5554 9.00011 14.5554C8.47372 14.5554 7.94664 14.3547 7.54594 13.954L6.4258 12.8332C6.15428 12.5616 6.15428 12.1221 6.4258 11.8512C6.69733 11.5797 7.13622 11.5797 7.40775 11.8512L8.30566 12.7491V9.69498C8.30566 9.31164 8.61608 9.00053 9.00011 9.00053C9.38414 9.00053 9.69455 9.31164 9.69455 9.69498V12.7491L10.5925 11.8512C10.864 11.5797 11.3029 11.5797 11.5744 11.8512Z" fill="#555F75"/>
</g>
<defs>
<clipPath id="clip0_2137_2454">
<rect width="16.6667" height="16.6667" fill="white" transform="translate(0.666748 0.666504)"/>
</clipPath>
</defs>
</svg>
