<svg width="20" height="20" viewBox="0 0 20 20" fill="none" xmlns="http://www.w3.org/2000/svg">
<g clip-path="url(#clip0_2137_1870)">
<path d="M2.23108 2.22333L3.03316 1.52819C3.95747 0.603885 5.45469 0.603885 6.37899 1.52819C6.40191 1.55111 7.8151 3.39208 7.8151 3.39208C8.68594 4.30875 8.68594 5.7525 7.8151 6.66152L6.92899 7.7768C8.04427 10.3053 9.7783 12.0469 12.2227 13.0858L13.338 12.1921C14.247 11.3136 15.6984 11.3136 16.6075 12.1921C16.6075 12.1921 18.4484 13.6053 18.4714 13.6282C19.3957 14.5525 19.3957 16.0497 18.5095 16.9358L17.7457 17.8143C16.8672 18.6928 15.6832 19.174 14.3998 19.174C8.56372 19.174 0.83316 11.4358 0.83316 5.60736C0.83316 4.33166 1.31441 3.14 2.23108 2.23097V2.22333ZM14.3998 17.6386C15.2707 17.6386 16.0727 17.3178 16.6227 16.7601L17.3866 15.8817C17.6998 15.5685 17.7151 15.0567 17.4172 14.7282C17.4172 14.7282 15.5915 13.3226 15.5686 13.2997C15.2554 12.9865 14.7054 12.9865 14.3845 13.2997C14.3616 13.3226 12.8262 14.5525 12.8262 14.5525C12.6123 14.7206 12.3297 14.7664 12.0776 14.6671C8.9151 13.4601 6.64635 11.199 5.3401 7.93722C5.2408 7.68514 5.27899 7.39486 5.45469 7.17333C5.45469 7.17333 6.68455 5.63027 6.69983 5.615C7.0283 5.28652 7.0283 4.75944 6.69983 4.43097C6.67691 4.40805 5.27135 2.58236 5.27135 2.58236C4.94288 2.28444 4.43108 2.29208 4.07969 2.64347L3.27761 3.33861C2.68941 3.9268 2.36094 4.72888 2.36094 5.59972C2.36094 10.9164 9.82413 17.6386 14.3998 17.6386Z" fill="#667085"/>
</g>
<defs>
<clipPath id="clip0_2137_1870">
<rect width="18.3333" height="18.3333" fill="white" transform="matrix(-1 0 0 1 19.1665 0.833008)"/>
</clipPath>
</defs>
</svg>
