<svg width="18" height="18" viewBox="0 0 18 18" fill="none" xmlns="http://www.w3.org/2000/svg">
<g clip-path="url(#clip0_2137_2460)">
<path d="M15.2501 3.44428H13.0973C12.9362 2.66054 12.5097 1.95633 11.8899 1.45034C11.27 0.944344 10.4947 0.667514 9.69455 0.666504L8.30566 0.666504C7.50552 0.667514 6.73019 0.944344 6.11035 1.45034C5.49051 1.95633 5.06406 2.66054 4.90289 3.44428H2.75011C2.56593 3.44428 2.3893 3.51745 2.25906 3.64768C2.12883 3.77791 2.05566 3.95455 2.05566 4.13873C2.05566 4.3229 2.12883 4.49954 2.25906 4.62977C2.3893 4.76001 2.56593 4.83317 2.75011 4.83317H3.44455V13.8609C3.44566 14.7815 3.81183 15.664 4.46276 16.315C5.11369 16.9659 5.99622 17.3321 6.91678 17.3332H11.0834C12.004 17.3321 12.8865 16.9659 13.5375 16.315C14.1884 15.664 14.5546 14.7815 14.5557 13.8609V4.83317H15.2501C15.4343 4.83317 15.6109 4.76001 15.7412 4.62977C15.8714 4.49954 15.9446 4.3229 15.9446 4.13873C15.9446 3.95455 15.8714 3.77791 15.7412 3.64768C15.6109 3.51745 15.4343 3.44428 15.2501 3.44428ZM8.30566 2.05539H9.69455C10.1253 2.05592 10.5453 2.18968 10.8971 2.43834C11.2488 2.687 11.515 3.03837 11.6591 3.44428H6.34108C6.48524 3.03837 6.75143 2.687 7.10316 2.43834C7.45488 2.18968 7.87492 2.05592 8.30566 2.05539ZM13.1668 13.8609C13.1668 14.4135 12.9473 14.9434 12.5566 15.3341C12.1659 15.7248 11.636 15.9443 11.0834 15.9443H6.91678C6.36424 15.9443 5.83434 15.7248 5.44364 15.3341C5.05294 14.9434 4.83344 14.4135 4.83344 13.8609V4.83317H13.1668V13.8609Z" fill="#F5430B"/>
<path d="M7.61119 13.1664C7.79537 13.1664 7.97201 13.0932 8.10224 12.963C8.23247 12.8328 8.30564 12.6561 8.30564 12.472V8.30528C8.30564 8.12111 8.23247 7.94447 8.10224 7.81424C7.97201 7.684 7.79537 7.61084 7.61119 7.61084C7.42701 7.61084 7.25038 7.684 7.12015 7.81424C6.98991 7.94447 6.91675 8.12111 6.91675 8.30528V12.472C6.91675 12.6561 6.98991 12.8328 7.12015 12.963C7.25038 13.0932 7.42701 13.1664 7.61119 13.1664Z" fill="#F5430B"/>
<path d="M10.389 13.1664C10.5732 13.1664 10.7498 13.0932 10.8801 12.963C11.0103 12.8328 11.0835 12.6561 11.0835 12.472V8.30528C11.0835 8.12111 11.0103 7.94447 10.8801 7.81424C10.7498 7.684 10.5732 7.61084 10.389 7.61084C10.2048 7.61084 10.0282 7.684 9.89798 7.81424C9.76774 7.94447 9.69458 8.12111 9.69458 8.30528V12.472C9.69458 12.6561 9.76774 12.8328 9.89798 12.963C10.0282 13.0932 10.2048 13.1664 10.389 13.1664Z" fill="#F5430B"/>
</g>
<defs>
<clipPath id="clip0_2137_2460">
<rect width="16.6667" height="16.6667" fill="white" transform="translate(0.666748 0.666504)"/>
</clipPath>
</defs>
</svg>
