<svg width="18" height="18" viewBox="0 0 18 18" fill="none" xmlns="http://www.w3.org/2000/svg">
<g clip-path="url(#clip0_2137_2446)">
<path fill-rule="evenodd" clip-rule="evenodd" d="M14.8781 3.08873C13.3184 1.52762 11.2448 0.667198 9.03575 0.666504C4.48366 0.666504 0.778803 4.37067 0.77672 8.92484C0.776025 10.3804 1.15658 11.8012 1.8795 13.054L0.707275 17.3332L5.08505 16.1846C6.2913 16.8429 7.64964 17.1894 9.03158 17.1901H9.03505C13.5864 17.1901 17.292 13.4853 17.2941 8.93109C17.2955 6.72484 16.4371 4.64914 14.8781 3.08873ZM9.03575 15.795H9.03297C7.80103 15.795 6.59339 15.4637 5.53922 14.838L5.28853 14.6894L2.69061 15.3707L3.38436 12.8373L3.22116 12.5776C2.53366 11.4846 2.17116 10.2214 2.17186 8.92484C2.17325 5.14012 5.25311 2.06095 9.03922 2.06095C10.8726 2.06095 12.5962 2.77623 13.892 4.07345C15.1878 5.37137 15.901 7.09567 15.9003 8.9297C15.8982 12.7158 12.8191 15.795 9.03575 15.795ZM12.801 10.654C12.5948 10.5505 11.5802 10.0512 11.3906 9.98248C11.2017 9.91373 11.0642 9.879 10.926 10.0853C10.7878 10.2915 10.3934 10.7568 10.2726 10.895C10.1524 11.0325 10.0316 11.0498 9.82533 10.9464C9.61908 10.8429 8.9538 10.6255 8.16561 9.92206C7.55241 9.37484 7.13783 8.69914 7.01769 8.4922C6.89755 8.28525 7.00519 8.17414 7.10797 8.07137C7.20103 7.979 7.31422 7.83039 7.41769 7.70956C7.52186 7.59012 7.55589 7.504 7.62533 7.36581C7.69408 7.22831 7.66005 7.10748 7.60797 7.004C7.55589 6.90123 7.14339 5.88525 6.97186 5.47206C6.8045 5.06928 6.63436 5.12414 6.50728 5.11789C6.38714 5.11164 6.24964 5.11095 6.11144 5.11095C5.97394 5.11095 5.75033 5.16234 5.56144 5.36928C5.37255 5.57623 4.83922 6.07553 4.83922 7.09081C4.83922 8.10678 5.5788 9.08803 5.68158 9.22553C5.78436 9.36303 7.13644 11.4478 9.20658 12.3415C9.69894 12.554 10.0837 12.6811 10.383 12.7762C10.8774 12.9332 11.3274 12.9109 11.683 12.8582C12.0795 12.7991 12.9038 12.3589 13.076 11.8769C13.2483 11.395 13.2483 10.9811 13.1962 10.8957C13.1448 10.8089 13.0073 10.7575 12.801 10.654Z" fill="#555F75"/>
</g>
<defs>
<clipPath id="clip0_2137_2446">
<rect width="16.6667" height="16.6667" fill="white" transform="translate(0.666748 0.666504)"/>
</clipPath>
</defs>
</svg>
