<svg width="25" height="25" viewBox="0 0 25 25" fill="none" xmlns="http://www.w3.org/2000/svg">
<g clip-path="url(#clip0_2096_8341)">
<path d="M5.92683 2.83545H8.42683C10.2678 2.83545 11.7601 4.32783 11.7601 6.16877V8.66877C11.7601 10.5097 10.2678 12.0021 8.42683 12.0021H5.92683C4.08589 12.0021 2.59351 10.5097 2.59351 8.66877V6.16877C2.59351 4.32783 4.08589 2.83545 5.92683 2.83545Z" fill="#86868A"/>
<path d="M16.7602 2.83545H19.2602C21.1011 2.83545 22.5935 4.32783 22.5935 6.16877V8.66877C22.5935 10.5097 21.1011 12.0021 19.2602 12.0021H16.7602C14.9192 12.0021 13.4269 10.5097 13.4269 8.66877V6.16877C13.4268 4.32783 14.9192 2.83545 16.7602 2.83545Z" fill="#86868A"/>
<path d="M5.92683 13.6685H8.42683C10.2678 13.6685 11.7601 15.1608 11.7601 17.0018V19.5018C11.7601 21.3427 10.2678 22.8351 8.42683 22.8351H5.92683C4.08589 22.8351 2.59351 21.3428 2.59351 19.5018V17.0018C2.59351 15.1608 4.08589 13.6685 5.92683 13.6685Z" fill="#86868A"/>
<path d="M16.7601 13.6685H19.2601C21.101 13.6685 22.5934 15.1608 22.5934 17.0018V19.5018C22.5934 21.3428 21.101 22.8351 19.2601 22.8351H16.7601C14.9191 22.8351 13.4268 21.3428 13.4268 19.5018V17.0018C13.4267 15.1608 14.9191 13.6685 16.7601 13.6685Z" fill="#86868A"/>
</g>
<defs>
<clipPath id="clip0_2096_8341">
<rect width="20" height="20" fill="white" transform="translate(2.59351 2.83545)"/>
</clipPath>
</defs>
</svg>
