<svg width="21" height="21" viewBox="0 0 21 21" fill="none" xmlns="http://www.w3.org/2000/svg">
<path d="M12.361 14.7763L18.0935 9.04379V3.84212C18.0935 2.00379 16.5985 0.508789 14.7602 0.508789H6.42684C4.58851 0.507956 3.09351 2.00296 3.09351 3.84129V9.04379L8.82517 14.7763C9.77017 15.7205 11.4168 15.7205 12.361 14.7763ZM6.69267 7.62212C6.35601 7.30879 6.33601 6.78129 6.64934 6.44462C6.96351 6.10712 7.49184 6.08962 7.82684 6.40129L9.36934 7.83546C9.5935 8.05879 9.92434 8.05962 10.1285 7.85546L13.3477 4.75212C13.6793 4.43212 14.2068 4.44296 14.526 4.77296C14.846 5.10379 14.836 5.63212 14.5052 5.95129L11.296 9.04462C10.876 9.46462 10.3202 9.67462 9.7635 9.67462C9.20267 9.67462 8.64017 9.46129 8.21267 9.03462L6.69267 7.62212ZM20.5935 11.098V16.3413C20.5935 18.6388 18.7243 20.508 16.4268 20.508H4.76017C2.46267 20.508 0.593506 18.6388 0.593506 16.3413V11.098C0.593506 10.4763 0.746839 9.87129 1.01017 9.31712L7.64767 15.9555C8.43517 16.7421 9.48101 17.1755 10.5943 17.1755C11.7077 17.1755 12.7535 16.7421 13.5402 15.9555L20.1777 9.31712C20.441 9.87129 20.5935 10.4771 20.5935 11.098Z" fill="#86868A"/>
</svg>
