<svg width="20" height="20" viewBox="0 0 20 20" fill="none" xmlns="http://www.w3.org/2000/svg">
<g clip-path="url(#clip0_2137_1880)">
<path d="M15.3474 2.36079H14.5835V1.5969C14.5835 1.3943 14.503 1.2 14.3598 1.05675C14.2165 0.913489 14.0222 0.833008 13.8196 0.833008C13.617 0.833008 13.4227 0.913489 13.2795 1.05675C13.1362 1.2 13.0557 1.3943 13.0557 1.5969V2.36079H6.94461V1.5969C6.94461 1.3943 6.86413 1.2 6.72087 1.05675C6.57761 0.913489 6.38331 0.833008 6.18072 0.833008C5.97812 0.833008 5.78382 0.913489 5.64057 1.05675C5.49731 1.2 5.41683 1.3943 5.41683 1.5969V2.36079H4.65294C3.64033 2.362 2.66955 2.76479 1.95353 3.48081C1.2375 4.19684 0.834709 5.16762 0.833496 6.18023L0.833496 15.3469C0.834709 16.3595 1.2375 17.3303 1.95353 18.0463C2.66955 18.7623 3.64033 19.1651 4.65294 19.1663H15.3474C16.36 19.1651 17.3308 18.7623 18.0468 18.0463C18.7628 17.3303 19.1656 16.3595 19.1668 15.3469V6.18023C19.1656 5.16762 18.7628 4.19684 18.0468 3.48081C17.3308 2.76479 16.36 2.362 15.3474 2.36079ZM2.36127 6.18023C2.36127 5.57244 2.60272 4.98955 3.03249 4.55978C3.46226 4.13001 4.04515 3.88856 4.65294 3.88856H15.3474C15.9552 3.88856 16.5381 4.13001 16.9678 4.55978C17.3976 4.98955 17.6391 5.57244 17.6391 6.18023V6.94412H2.36127V6.18023ZM15.3474 17.6386H4.65294C4.04515 17.6386 3.46226 17.3971 3.03249 16.9674C2.60272 16.5376 2.36127 15.9547 2.36127 15.3469V8.4719H17.6391V15.3469C17.6391 15.9547 17.3976 16.5376 16.9678 16.9674C16.5381 17.3971 15.9552 17.6386 15.3474 17.6386Z" fill="#667085"/>
<path d="M10.0003 13.4372C10.6332 13.4372 11.1462 12.9242 11.1462 12.2913C11.1462 11.6585 10.6332 11.1455 10.0003 11.1455C9.3675 11.1455 8.85449 11.6585 8.85449 12.2913C8.85449 12.9242 9.3675 13.4372 10.0003 13.4372Z" fill="#667085"/>
<path d="M6.1805 13.4372C6.81333 13.4372 7.32633 12.9242 7.32633 12.2913C7.32633 11.6585 6.81333 11.1455 6.1805 11.1455C5.54768 11.1455 5.03467 11.6585 5.03467 12.2913C5.03467 12.9242 5.54768 13.4372 6.1805 13.4372Z" fill="#667085"/>
<path d="M13.8197 13.4372C14.4525 13.4372 14.9655 12.9242 14.9655 12.2913C14.9655 11.6585 14.4525 11.1455 13.8197 11.1455C13.1868 11.1455 12.6738 11.6585 12.6738 12.2913C12.6738 12.9242 13.1868 13.4372 13.8197 13.4372Z" fill="#667085"/>
</g>
<defs>
<clipPath id="clip0_2137_1880">
<rect width="18.3333" height="18.3333" fill="white" transform="translate(0.833496 0.833008)"/>
</clipPath>
</defs>
</svg>
