<svg width="20" height="20" viewBox="0 0 20 20" fill="none" xmlns="http://www.w3.org/2000/svg">
<g clip-path="url(#clip0_2137_1860)">
<path d="M15.3474 1.59668H4.65294C3.64033 1.59789 2.66955 2.00069 1.95353 2.71671C1.2375 3.43273 0.834709 4.40352 0.833496 5.41612L0.833496 14.5828C0.834709 15.5954 1.2375 16.5662 1.95353 17.2822C2.66955 17.9982 3.64033 18.401 4.65294 18.4022H15.3474C16.36 18.401 17.3308 17.9982 18.0468 17.2822C18.7628 16.5662 19.1656 15.5954 19.1668 14.5828V5.41612C19.1656 4.40352 18.7628 3.43273 18.0468 2.71671C17.3308 2.00069 16.36 1.59789 15.3474 1.59668ZM4.65294 3.12446H15.3474C15.8048 3.12536 16.2515 3.26311 16.6299 3.52C17.0084 3.77689 17.3013 4.14115 17.471 4.56592L11.6211 10.4165C11.1906 10.8453 10.6078 11.0861 10.0002 11.0861C9.39255 11.0861 8.8097 10.8453 8.37919 10.4165L2.52933 4.56592C2.69903 4.14115 2.99195 3.77689 3.37041 3.52C3.74886 3.26311 4.19554 3.12536 4.65294 3.12446ZM15.3474 16.8745H4.65294C4.04515 16.8745 3.46226 16.633 3.03249 16.2032C2.60272 15.7735 2.36127 15.1906 2.36127 14.5828V6.56196L7.29905 11.4967C8.01606 12.2119 8.98744 12.6135 10.0002 12.6135C11.0129 12.6135 11.9843 12.2119 12.7013 11.4967L17.6391 6.56196V14.5828C17.6391 15.1906 17.3976 15.7735 16.9678 16.2032C16.5381 16.633 15.9552 16.8745 15.3474 16.8745Z" fill="#667085"/>
</g>
<defs>
<clipPath id="clip0_2137_1860">
<rect width="18.3333" height="18.3333" fill="white" transform="translate(0.833496 0.833008)"/>
</clipPath>
</defs>
</svg>
