<svg width="18" height="18" viewBox="0 0 18 18" fill="none" xmlns="http://www.w3.org/2000/svg">
<g clip-path="url(#clip0_2137_2440)">
<path d="M8.83553 0.666504C4.24039 0.666504 0.502197 4.4047 0.502197 8.99984C0.502197 13.595 4.24039 17.3332 8.83553 17.3332C13.4307 17.3332 17.1689 13.595 17.1689 8.99984C17.1689 4.4047 13.4307 0.666504 8.83553 0.666504ZM8.83553 15.9443C5.00636 15.9443 1.89109 12.829 1.89109 8.99984C1.89109 5.17067 5.00636 2.05539 8.83553 2.05539C12.6647 2.05539 15.78 5.17067 15.78 8.99984C15.78 12.829 12.6647 15.9443 8.83553 15.9443ZM12.3078 8.99984C12.3078 9.38317 11.9966 9.69428 11.6133 9.69428H6.05775C5.67442 9.69428 5.36331 9.38317 5.36331 8.99984C5.36331 8.6165 5.67442 8.30539 6.05775 8.30539H11.6133C11.9966 8.30539 12.3078 8.6165 12.3078 8.99984Z" fill="#555F75"/>
</g>
<defs>
<clipPath id="clip0_2137_2440">
<rect width="16.6667" height="16.6667" fill="white" transform="translate(0.502197 0.666504)"/>
</clipPath>
</defs>
</svg>
