<svg width="28" height="28" viewBox="0 0 28 28" fill="none" xmlns="http://www.w3.org/2000/svg">
<g clip-path="url(#clip0_2096_4577)">
<path d="M0.666645 7.52864L0.666645 9.89531C0.671369 10.3926 0.841104 10.8742 1.1492 11.2645C1.4573 11.6549 1.8863 11.9319 2.36887 12.052C2.83869 12.1806 3.25322 12.4601 3.54871 12.8473C3.84419 13.2346 4.00424 13.7082 4.00424 14.1953C4.00424 14.6824 3.84419 15.156 3.54871 15.5433C3.25322 15.9306 2.83869 16.21 2.36887 16.3386C1.8863 16.4588 1.4573 16.7357 1.1492 17.1261C0.841104 17.5164 0.671369 17.998 0.666644 18.4953L0.666644 20.862C0.666644 21.746 1.01783 22.5939 1.64295 23.219C2.26808 23.8441 3.11592 24.1953 3.99998 24.1953L8.44442 24.1953L8.44442 19.7509C8.44442 19.4562 8.56148 19.1736 8.76986 18.9652C8.97823 18.7568 9.26085 18.6398 9.55553 18.6398C9.85022 18.6398 10.1328 18.7568 10.3412 18.9652C10.5496 19.1736 10.6666 19.4562 10.6666 19.7509L10.6666 24.1953L21.7778 24.1953C23.2506 24.1935 24.6627 23.6077 25.7042 22.5662C26.7457 21.5247 27.3315 20.1126 27.3333 18.6398L27.3333 18.4953C27.3286 17.998 27.1589 17.5164 26.8508 17.1261C26.5427 16.7357 26.1137 16.4588 25.6311 16.3386C25.1613 16.21 24.7467 15.9306 24.4513 15.5433C24.1558 15.156 23.9957 14.6824 23.9957 14.1953C23.9957 13.7082 24.1558 13.2346 24.4513 12.8473C24.7467 12.4601 25.1613 12.1806 25.6311 12.052C26.1137 11.9319 26.5427 11.6549 26.8508 11.2645C27.1589 10.8742 27.3286 10.3926 27.3333 9.89531L27.3333 9.75087C27.3315 8.27799 26.7457 6.86593 25.7042 5.82445C24.6627 4.78296 23.2506 4.19708 21.7778 4.19531L10.6666 4.19531L10.6666 8.63976C10.6666 8.93444 10.5496 9.21706 10.3412 9.42543C10.1328 9.6338 9.85022 9.75087 9.55553 9.75087C9.26085 9.75087 8.97823 9.6338 8.76986 9.42543C8.56149 9.21706 8.44442 8.93444 8.44442 8.63976L8.44442 4.19531L3.99998 4.19531C3.11592 4.19531 2.26808 4.5465 1.64296 5.17162C1.01783 5.79674 0.666645 6.64459 0.666645 7.52864ZM10.6666 13.0842L10.6666 15.3064C10.6666 15.6011 10.5496 15.8837 10.3412 16.0921C10.1328 16.3005 9.85022 16.4175 9.55553 16.4175C9.26085 16.4175 8.97823 16.3005 8.76986 16.0921C8.56148 15.8837 8.44442 15.6011 8.44442 15.3064L8.44442 13.0842C8.44442 12.7895 8.56148 12.5069 8.76986 12.2985C8.97823 12.0902 9.26085 11.9731 9.55553 11.9731C9.85022 11.9731 10.1328 12.0902 10.3412 12.2985C10.5496 12.5069 10.6666 12.7895 10.6666 13.0842Z" fill="#0DAC8A"/>
</g>
<defs>
<clipPath id="clip0_2096_4577">
<rect width="26.6667" height="26.6667" fill="white" transform="translate(27.3335 0.861328) rotate(90)"/>
</clipPath>
</defs>
</svg>
