<svg width="32" height="33" viewBox="0 0 32 33" fill="none" xmlns="http://www.w3.org/2000/svg">
<g clip-path="url(#clip0_2096_4587)">
<path d="M24.889 2.86133H7.11119C4.66008 2.86133 2.66675 4.85466 2.66675 7.30577V20.6391C2.66675 23.0902 4.66008 25.0836 7.11119 25.0836H10.359L14.5234 28.5902C14.9479 28.968 15.4812 29.1558 16.0101 29.1558C16.529 29.1558 17.0445 28.9747 17.4456 28.6169L21.7201 25.0836H24.889C27.3401 25.0836 29.3334 23.0902 29.3334 20.6391V7.30577C29.3334 4.85466 27.3401 2.86133 24.889 2.86133ZM21.5556 17.3058C21.5556 17.9202 21.0579 18.4169 20.4445 18.4169C19.8312 18.4169 19.3334 17.9202 19.3334 17.3058V13.3502L13.4512 19.2047C13.2345 19.4202 12.9501 19.528 12.6667 19.528C12.3812 19.528 12.0967 19.418 11.879 19.2002C11.4456 18.7647 11.4479 18.0624 11.8823 17.6291L17.7901 11.7502H13.7779C13.1645 11.7502 12.6667 11.2536 12.6667 10.6391C12.6667 10.0247 13.1645 9.528 13.7779 9.528H18.2223C20.0601 9.528 21.5556 11.0236 21.5556 12.8613V17.3058Z" fill="#0DAC8A"/>
</g>
<defs>
<clipPath id="clip0_2096_4587">
<rect width="26.6667" height="26.6667" fill="white" transform="translate(2.66675 2.86133)"/>
</clipPath>
</defs>
</svg>
