<svg width="20" height="21" viewBox="0 0 20 21" fill="none" xmlns="http://www.w3.org/2000/svg">
<g clip-path="url(#clip0_2170_2585)">
<path d="M15.8333 1.73454H15V0.901204C15 0.680191 14.9122 0.468229 14.7559 0.311949C14.5996 0.155668 14.3877 0.0678711 14.1667 0.0678711C13.9457 0.0678711 13.7337 0.155668 13.5774 0.311949C13.4211 0.468229 13.3333 0.680191 13.3333 0.901204V1.73454H6.66667V0.901204C6.66667 0.680191 6.57887 0.468229 6.42259 0.311949C6.26631 0.155668 6.05435 0.0678711 5.83333 0.0678711C5.61232 0.0678711 5.40036 0.155668 5.24408 0.311949C5.0878 0.468229 5 0.680191 5 0.901204V1.73454H4.16667C3.062 1.73586 2.00296 2.17527 1.22185 2.95639C0.440735 3.7375 0.00132321 4.79654 0 5.9012L0 15.9012C0.00132321 17.0059 0.440735 18.0649 1.22185 18.846C2.00296 19.6271 3.062 20.0665 4.16667 20.0679H15.8333C16.938 20.0665 17.997 19.6271 18.7782 18.846C19.5593 18.0649 19.9987 17.0059 20 15.9012V5.9012C19.9987 4.79654 19.5593 3.7375 18.7782 2.95639C17.997 2.17527 16.938 1.73586 15.8333 1.73454ZM1.66667 5.9012C1.66667 5.23816 1.93006 4.60228 2.3989 4.13344C2.86774 3.6646 3.50363 3.4012 4.16667 3.4012H15.8333C16.4964 3.4012 17.1323 3.6646 17.6011 4.13344C18.0699 4.60228 18.3333 5.23816 18.3333 5.9012V6.73454H1.66667V5.9012ZM15.8333 18.4012H4.16667C3.50363 18.4012 2.86774 18.1378 2.3989 17.669C1.93006 17.2001 1.66667 16.5642 1.66667 15.9012V8.4012H18.3333V15.9012C18.3333 16.5642 18.0699 17.2001 17.6011 17.669C17.1323 18.1378 16.4964 18.4012 15.8333 18.4012Z" fill="#0D0D26"/>
<path d="M10 13.8179C10.6904 13.8179 11.25 13.2582 11.25 12.5679C11.25 11.8775 10.6904 11.3179 10 11.3179C9.30964 11.3179 8.75 11.8775 8.75 12.5679C8.75 13.2582 9.30964 13.8179 10 13.8179Z" fill="#0D0D26"/>
<path d="M5.83325 13.8179C6.52361 13.8179 7.08325 13.2582 7.08325 12.5679C7.08325 11.8775 6.52361 11.3179 5.83325 11.3179C5.1429 11.3179 4.58325 11.8775 4.58325 12.5679C4.58325 13.2582 5.1429 13.8179 5.83325 13.8179Z" fill="#0D0D26"/>
<path d="M14.1667 13.8179C14.8571 13.8179 15.4167 13.2582 15.4167 12.5679C15.4167 11.8775 14.8571 11.3179 14.1667 11.3179C13.4764 11.3179 12.9167 11.8775 12.9167 12.5679C12.9167 13.2582 13.4764 13.8179 14.1667 13.8179Z" fill="#0D0D26"/>
</g>
<defs>
<clipPath id="clip0_2170_2585">
<rect width="20" height="20" fill="white" transform="translate(0 0.0678711)"/>
</clipPath>
</defs>
</svg>
