<svg width="20" height="21" viewBox="0 0 20 21" fill="none" xmlns="http://www.w3.org/2000/svg">
<g clip-path="url(#clip0_2170_2619)">
<path d="M1.52497 1.5849L2.39997 0.826563C3.4083 -0.181771 5.04163 -0.181771 6.04997 0.826563C6.07497 0.851563 7.61663 2.8599 7.61663 2.8599C8.56663 3.8599 8.56663 5.4349 7.61663 6.42656L6.64997 7.64323C7.86663 10.4016 9.7583 12.3016 12.425 13.4349L13.6416 12.4599C14.6333 11.5016 16.2166 11.5016 17.2083 12.4599C17.2083 12.4599 19.2166 14.0016 19.2416 14.0266C20.25 15.0349 20.25 16.6682 19.2833 17.6349L18.45 18.5932C17.4916 19.5516 16.2 20.0766 14.8 20.0766C8.4333 20.0766 -3.43323e-05 11.6349 -3.43323e-05 5.27656C-3.43323e-05 3.8849 0.524965 2.5849 1.52497 1.59323V1.5849ZM14.8 18.4016C15.75 18.4016 16.625 18.0516 17.225 17.4432L18.0583 16.4849C18.4 16.1432 18.4166 15.5849 18.0916 15.2266C18.0916 15.2266 16.1 13.6932 16.075 13.6682C15.7333 13.3266 15.1333 13.3266 14.7833 13.6682C14.7583 13.6932 13.0833 15.0349 13.0833 15.0349C12.85 15.2182 12.5416 15.2682 12.2666 15.1599C8.81663 13.8432 6.34163 11.3766 4.91663 7.81823C4.8083 7.54323 4.84997 7.22656 5.04163 6.9849C5.04163 6.9849 6.3833 5.30156 6.39997 5.2849C6.7583 4.92656 6.7583 4.35156 6.39997 3.99323C6.37497 3.96823 4.84163 1.97656 4.84163 1.97656C4.4833 1.65156 3.92496 1.6599 3.54163 2.04323L2.66663 2.80156C2.02497 3.44323 1.66663 4.31823 1.66663 5.26823C1.66663 11.0682 9.8083 18.4016 14.8 18.4016Z" fill="#0D0D26"/>
</g>
<defs>
<clipPath id="clip0_2170_2619">
<rect width="20" height="20" fill="white" transform="matrix(-1 0 0 1 20 0.0683594)"/>
</clipPath>
</defs>
</svg>
