<svg width="20" height="21" viewBox="0 0 20 21" fill="none" xmlns="http://www.w3.org/2000/svg">
<path d="M15.8333 0.0683594H4.16667C1.86917 0.0683594 0 1.93753 0 4.23503V15.9017C0 18.1992 1.86917 20.0684 4.16667 20.0684H15.8333C18.1308 20.0684 20 18.1992 20 15.9017V4.23503C20 1.93753 18.1308 0.0683594 15.8333 0.0683594ZM18.3333 15.9017C18.3333 17.28 17.2117 18.4017 15.8333 18.4017H4.16667C2.78833 18.4017 1.66667 17.28 1.66667 15.9017V4.23503C1.66667 2.85669 2.78833 1.73503 4.16667 1.73503H15.8333C17.2117 1.73503 18.3333 2.85669 18.3333 4.23503V15.9017ZM10.8333 15.0684C10.8333 15.5292 10.46 15.9017 10 15.9017C9.54 15.9017 9.16667 15.5292 9.16667 15.0684C9.16667 12.7709 7.2975 10.9017 5 10.9017C4.54 10.9017 4.16667 10.5292 4.16667 10.0684C4.16667 9.60753 4.54 9.23503 5 9.23503C8.21667 9.23503 10.8333 11.8525 10.8333 15.0684ZM15.8333 15.0684C15.8333 15.5292 15.46 15.9017 15 15.9017C14.54 15.9017 14.1667 15.5292 14.1667 15.0684C14.1667 10.0142 10.0542 5.90169 5 5.90169C4.54 5.90169 4.16667 5.52919 4.16667 5.06836C4.16667 4.60753 4.54 4.23503 5 4.23503C10.9733 4.23503 15.8333 9.09503 15.8333 15.0684ZM6.66667 14.6517C6.66667 15.3417 6.10667 15.9017 5.41667 15.9017C4.72667 15.9017 4.16667 15.3417 4.16667 14.6517C4.16667 13.9617 4.72667 13.4017 5.41667 13.4017C6.10667 13.4017 6.66667 13.9617 6.66667 14.6517Z" fill="#0D0D26"/>
</svg>
