<svg width="17" height="17" viewBox="0 0 17 17" fill="none" xmlns="http://www.w3.org/2000/svg">
<g clip-path="url(#clip0_2592_26)">
<path d="M0.5 13.1748C0.501059 14.0585 0.852588 14.9058 1.47748 15.5307C2.10237 16.1555 2.9496 16.5071 3.83333 16.5081H13.1667C14.0504 16.5071 14.8976 16.1555 15.5225 15.5307C16.1474 14.9058 16.4989 14.0585 16.5 13.1748V7.1748H0.5V13.1748ZM11.8333 10.1748C12.0311 10.1748 12.2245 10.2335 12.3889 10.3433C12.5534 10.4532 12.6815 10.6094 12.7572 10.7921C12.8329 10.9748 12.8527 11.1759 12.8141 11.3699C12.7755 11.5639 12.6803 11.7421 12.5404 11.8819C12.4006 12.0218 12.2224 12.117 12.0284 12.1556C11.8344 12.1942 11.6334 12.1744 11.4507 12.0987C11.2679 12.023 11.1117 11.8948 11.0019 11.7304C10.892 11.5659 10.8333 11.3726 10.8333 11.1748C10.8333 10.9096 10.9387 10.6552 11.1262 10.4677C11.3138 10.2802 11.5681 10.1748 11.8333 10.1748ZM8.5 10.1748C8.69778 10.1748 8.89112 10.2335 9.05557 10.3433C9.22002 10.4532 9.34819 10.6094 9.42388 10.7921C9.49957 10.9748 9.51937 11.1759 9.48079 11.3699C9.4422 11.5639 9.34696 11.7421 9.20711 11.8819C9.06726 12.0218 8.88907 12.117 8.69509 12.1556C8.50111 12.1942 8.30004 12.1744 8.11732 12.0987C7.93459 12.023 7.77841 11.8948 7.66853 11.7304C7.55865 11.5659 7.5 11.3726 7.5 11.1748C7.5 10.9096 7.60536 10.6552 7.79289 10.4677C7.98043 10.2802 8.23478 10.1748 8.5 10.1748ZM5.16667 10.1748C5.36445 10.1748 5.55779 10.2335 5.72224 10.3433C5.88669 10.4532 6.01486 10.6094 6.09055 10.7921C6.16623 10.9748 6.18604 11.1759 6.14745 11.3699C6.10887 11.5639 6.01363 11.7421 5.87377 11.8819C5.73392 12.0218 5.55574 12.117 5.36176 12.1556C5.16778 12.1942 4.96671 12.1744 4.78398 12.0987C4.60126 12.023 4.44508 11.8948 4.3352 11.7304C4.22532 11.5659 4.16667 11.3726 4.16667 11.1748C4.16667 10.9096 4.27202 10.6552 4.45956 10.4677C4.6471 10.2802 4.90145 10.1748 5.16667 10.1748Z" fill="#0D0D26"/>
<path d="M13.1667 1.84115H12.5V1.17448C12.5 0.997668 12.4298 0.828099 12.3047 0.703075C12.1797 0.57805 12.0101 0.507813 11.8333 0.507812C11.6565 0.507813 11.487 0.57805 11.3619 0.703075C11.2369 0.828099 11.1667 0.997668 11.1667 1.17448V1.84115H5.83333V1.17448C5.83333 0.997668 5.7631 0.828099 5.63807 0.703075C5.51305 0.57805 5.34348 0.507813 5.16667 0.507812C4.98986 0.507813 4.82029 0.57805 4.69526 0.703075C4.57024 0.828099 4.5 0.997668 4.5 1.17448V1.84115H3.83333C2.9496 1.8422 2.10237 2.19373 1.47748 2.81863C0.852588 3.44352 0.501059 4.29075 0.5 5.17448L0.5 5.84115H16.5V5.17448C16.4989 4.29075 16.1474 3.44352 15.5225 2.81863C14.8976 2.19373 14.0504 1.8422 13.1667 1.84115Z" fill="#0D0D26"/>
</g>
<defs>
<clipPath id="clip0_2592_26">
<rect width="16" height="16" fill="white" transform="translate(0.5 0.507812)"/>
</clipPath>
</defs>
</svg>
