<svg width="21" height="21" viewBox="0 0 21 21" fill="none" xmlns="http://www.w3.org/2000/svg">
<g clip-path="url(#clip0_2096_4474)">
<path d="M16.4268 0.507813H4.76017C3.65551 0.509136 2.59647 0.948547 1.81536 1.72966C1.03424 2.51078 0.594829 3.56982 0.593506 4.67448L0.593506 16.3411C0.594829 17.4458 1.03424 18.5048 1.81536 19.286C2.59647 20.0671 3.65551 20.5065 4.76017 20.5078V18.0078C4.76017 16.4607 5.37475 14.977 6.46872 13.883C7.56268 12.7891 9.04641 12.1745 10.5935 12.1745C12.1406 12.1745 13.6243 12.7891 14.7183 13.883C15.8123 14.977 16.4268 16.4607 16.4268 18.0078V20.5078C17.5315 20.5065 18.5905 20.0671 19.3717 19.286C20.1528 18.5048 20.5922 17.4458 20.5935 16.3411V4.67448C20.5922 3.56982 20.1528 2.51078 19.3717 1.72966C18.5905 0.948547 17.5315 0.509136 16.4268 0.507813ZM10.5935 10.5078C9.93423 10.5078 9.28977 10.3123 8.7416 9.94604C8.19344 9.57977 7.7662 9.05918 7.51391 8.45009C7.26161 7.841 7.1956 7.17078 7.32422 6.52418C7.45284 5.87757 7.77031 5.28363 8.23648 4.81746C8.70266 4.35128 9.2966 4.03381 9.9432 3.90519C10.5898 3.77658 11.26 3.84259 11.8691 4.09488C12.4782 4.34717 12.9988 4.77441 13.3651 5.32258C13.7313 5.87074 13.9268 6.51521 13.9268 7.17448C13.9268 8.05853 13.5756 8.90638 12.9505 9.5315C12.3254 10.1566 11.4776 10.5078 10.5935 10.5078Z" fill="#86868A"/>
<path d="M10.5935 8.84115C11.514 8.84115 12.2602 8.09495 12.2602 7.17448C12.2602 6.254 11.514 5.50781 10.5935 5.50781C9.67303 5.50781 8.92683 6.254 8.92683 7.17448C8.92683 8.09495 9.67303 8.84115 10.5935 8.84115Z" fill="#86868A"/>
<path d="M10.5934 13.8408C9.48876 13.8421 8.42972 14.2816 7.64861 15.0627C6.86749 15.8438 6.42808 16.9028 6.42676 18.0075V20.5075H14.7601V18.0075C14.7588 16.9028 14.3194 15.8438 13.5382 15.0627C12.7571 14.2816 11.6981 13.8421 10.5934 13.8408Z" fill="#86868A"/>
</g>
<defs>
<clipPath id="clip0_2096_4474">
<rect width="20" height="20" fill="white" transform="translate(0.593506 0.507812)"/>
</clipPath>
</defs>
</svg>
