<svg width="25" height="25" viewBox="0 0 25 25" fill="none" xmlns="http://www.w3.org/2000/svg">
<g clip-path="url(#clip0_2096_4952)">
<path d="M18.4268 2.57617H6.76017C5.65551 2.5775 4.59647 3.01691 3.81536 3.79802C3.03424 4.57914 2.59483 5.63818 2.59351 6.74284L2.59351 18.4095C2.59483 19.5142 3.03424 20.5732 3.81536 21.3543C4.59647 22.1354 5.65551 22.5748 6.76017 22.5762V20.0762C6.76017 18.5291 7.37475 17.0453 8.46872 15.9514C9.56268 14.8574 11.0464 14.2428 12.5935 14.2428C14.1406 14.2428 15.6243 14.8574 16.7183 15.9514C17.8123 17.0453 18.4268 18.5291 18.4268 20.0762V22.5762C19.5315 22.5748 20.5905 22.1354 21.3717 21.3543C22.1528 20.5732 22.5922 19.5142 22.5935 18.4095V6.74284C22.5922 5.63818 22.1528 4.57914 21.3717 3.79802C20.5905 3.01691 19.5315 2.5775 18.4268 2.57617ZM12.5935 12.5762C11.9342 12.5762 11.2898 12.3807 10.7416 12.0144C10.1934 11.6481 9.7662 11.1275 9.51391 10.5185C9.26161 9.90936 9.1956 9.23914 9.32422 8.59254C9.45284 7.94593 9.77031 7.35199 10.2365 6.88582C10.7027 6.41964 11.2966 6.10217 11.9432 5.97355C12.5898 5.84494 13.26 5.91095 13.8691 6.16324C14.4782 6.41553 14.9988 6.84277 15.3651 7.39094C15.7313 7.9391 15.9268 8.58357 15.9268 9.24284C15.9268 10.1269 15.5756 10.9747 14.9505 11.5999C14.3254 12.225 13.4776 12.5762 12.5935 12.5762Z" fill="#0DAC8A"/>
<path d="M12.5935 10.9095C13.514 10.9095 14.2602 10.1633 14.2602 9.24284C14.2602 8.32236 13.514 7.57617 12.5935 7.57617C11.673 7.57617 10.9268 8.32236 10.9268 9.24284C10.9268 10.1633 11.673 10.9095 12.5935 10.9095Z" fill="#0DAC8A"/>
<path d="M12.5934 15.9092C11.4888 15.9105 10.4297 16.3499 9.64861 17.131C8.86749 17.9121 8.42808 18.9712 8.42676 20.0758V22.5758H16.7601V20.0758C16.7588 18.9712 16.3194 17.9121 15.5382 17.131C14.7571 16.3499 13.6981 15.9105 12.5934 15.9092Z" fill="#0DAC8A"/>
</g>
<defs>
<clipPath id="clip0_2096_4952">
<rect width="20" height="20" fill="white" transform="translate(2.59351 2.57617)"/>
</clipPath>
</defs>
</svg>
