<svg width="21" height="21" viewBox="0 0 21 21" fill="none" xmlns="http://www.w3.org/2000/svg">
<g clip-path="url(#clip0_2096_4464)">
<path d="M0.593506 5.50781L0.593506 7.28281C0.59705 7.65576 0.72435 8.01697 0.955423 8.30973C1.18649 8.60249 1.50825 8.81023 1.87017 8.90031C2.22254 8.99679 2.53344 9.20637 2.75505 9.49682C2.97666 9.78726 3.0967 10.1425 3.0967 10.5078C3.0967 10.8731 2.97666 11.2284 2.75505 11.5188C2.53344 11.8092 2.22254 12.0188 1.87017 12.1153C1.50825 12.2054 1.18649 12.4131 0.955423 12.7059C0.72435 12.9987 0.597049 13.3599 0.593505 13.7328L0.593505 15.5078C0.593505 16.1709 0.856897 16.8067 1.32574 17.2756C1.79458 17.7444 2.43047 18.0078 3.09351 18.0078L6.42684 18.0078L6.42684 14.6745C6.42684 14.4535 6.51464 14.2415 6.67092 14.0852C6.8272 13.9289 7.03916 13.8411 7.26017 13.8411C7.48119 13.8411 7.69315 13.9289 7.84943 14.0852C8.00571 14.2415 8.09351 14.4535 8.09351 14.6745L8.09351 18.0078L16.4268 18.0078C17.5315 18.0065 18.5905 17.5671 19.3717 16.786C20.1528 16.0048 20.5922 14.9458 20.5935 13.8411L20.5935 13.7328C20.59 13.3599 20.4627 12.9987 20.2316 12.7059C20.0005 12.4131 19.6788 12.2054 19.3168 12.1153C18.9645 12.0188 18.6536 11.8092 18.432 11.5188C18.2103 11.2284 18.0903 10.8731 18.0903 10.5078C18.0903 10.1425 18.2103 9.78726 18.432 9.49682C18.6536 9.20637 18.9645 8.99679 19.3168 8.90031C19.6788 8.81023 20.0005 8.6025 20.2316 8.30973C20.4627 8.01697 20.59 7.65576 20.5935 7.28281L20.5935 7.17448C20.5922 6.06982 20.1528 5.01078 19.3717 4.22966C18.5905 3.44855 17.5315 3.00914 16.4268 3.00781L8.09351 3.00781L8.09351 6.34115C8.09351 6.56216 8.00571 6.77412 7.84943 6.9304C7.69315 7.08668 7.48119 7.17448 7.26017 7.17448C7.03916 7.17448 6.8272 7.08668 6.67092 6.9304C6.51464 6.77412 6.42684 6.56216 6.42684 6.34115L6.42684 3.00781L3.09351 3.00781C2.43047 3.00781 1.79458 3.2712 1.32574 3.74004C0.856897 4.20889 0.593506 4.84477 0.593506 5.50781ZM8.09351 9.67448L8.09351 11.3411C8.09351 11.5622 8.00571 11.7741 7.84943 11.9304C7.69315 12.0867 7.48119 12.1745 7.26017 12.1745C7.03916 12.1745 6.8272 12.0867 6.67092 11.9304C6.51464 11.7741 6.42684 11.5622 6.42684 11.3411L6.42684 9.67448C6.42684 9.45346 6.51464 9.2415 6.67092 9.08522C6.8272 8.92894 7.03916 8.84114 7.26017 8.84114C7.48119 8.84114 7.69315 8.92894 7.84943 9.08522C8.00571 9.2415 8.09351 9.45346 8.09351 9.67448Z" fill="#86868A"/>
</g>
<defs>
<clipPath id="clip0_2096_4464">
<rect width="20" height="20" fill="white" transform="translate(20.5935 0.507812) rotate(90)"/>
</clipPath>
</defs>
</svg>
