<svg width="21" height="21" viewBox="0 0 21 21" fill="none" xmlns="http://www.w3.org/2000/svg">
<g clip-path="url(#clip0_2096_7031)">
<path d="M0.593506 5.9082L0.593506 7.6832C0.59705 8.05615 0.72435 8.41736 0.955423 8.71012C1.18649 9.00288 1.50825 9.21062 1.87017 9.3007C2.22254 9.39718 2.53344 9.60676 2.75505 9.89721C2.97666 10.1877 3.0967 10.5429 3.0967 10.9082C3.0967 11.2735 2.97666 11.6288 2.75505 11.9192C2.53344 12.2096 2.22254 12.4192 1.87017 12.5157C1.50825 12.6058 1.18649 12.8135 0.955423 13.1063C0.72435 13.399 0.597049 13.7603 0.593505 14.1332L0.593505 15.9082C0.593505 16.5712 0.856897 17.2071 1.32574 17.676C1.79458 18.1448 2.43047 18.4082 3.09351 18.4082L6.42684 18.4082L6.42684 15.0749C6.42684 14.8539 6.51464 14.6419 6.67092 14.4856C6.8272 14.3293 7.03916 14.2415 7.26017 14.2415C7.48119 14.2415 7.69315 14.3293 7.84943 14.4856C8.00571 14.6419 8.09351 14.8539 8.09351 15.0749L8.09351 18.4082L16.4268 18.4082C17.5315 18.4069 18.5905 17.9675 19.3717 17.1864C20.1528 16.4052 20.5922 15.3462 20.5935 14.2415L20.5935 14.1332C20.59 13.7603 20.4627 13.399 20.2316 13.1063C20.0005 12.8135 19.6788 12.6058 19.3168 12.5157C18.9645 12.4192 18.6536 12.2096 18.432 11.9192C18.2103 11.6288 18.0903 11.2735 18.0903 10.9082C18.0903 10.5429 18.2103 10.1877 18.432 9.89721C18.6536 9.60677 18.9645 9.39718 19.3168 9.3007C19.6788 9.21062 20.0005 9.00289 20.2316 8.71012C20.4627 8.41736 20.59 8.05615 20.5935 7.6832L20.5935 7.57487C20.5922 6.47021 20.1528 5.41117 19.3717 4.63005C18.5905 3.84894 17.5315 3.40953 16.4268 3.4082L8.09351 3.4082L8.09351 6.74154C8.09351 6.96255 8.00571 7.17451 7.84943 7.33079C7.69315 7.48707 7.48119 7.57487 7.26017 7.57487C7.03916 7.57487 6.8272 7.48707 6.67092 7.33079C6.51464 7.17451 6.42684 6.96255 6.42684 6.74154L6.42684 3.4082L3.09351 3.4082C2.43047 3.4082 1.79458 3.67159 1.32574 4.14044C0.856897 4.60928 0.593506 5.24516 0.593506 5.9082ZM8.09351 10.0749L8.09351 11.7415C8.09351 11.9625 8.00571 12.1745 7.84943 12.3308C7.69315 12.4871 7.48119 12.5749 7.26017 12.5749C7.03916 12.5749 6.8272 12.4871 6.67092 12.3308C6.51464 12.1745 6.42684 11.9625 6.42684 11.7415L6.42684 10.0749C6.42684 9.85386 6.51464 9.64189 6.67092 9.48561C6.8272 9.32933 7.03916 9.24154 7.26017 9.24154C7.48119 9.24154 7.69315 9.32933 7.84943 9.48561C8.00571 9.64189 8.09351 9.85386 8.09351 10.0749Z" fill="#0DAC8A"/>
</g>
<defs>
<clipPath id="clip0_2096_7031">
<rect width="20" height="20" fill="white" transform="translate(20.5935 0.908203) rotate(90)"/>
</clipPath>
</defs>
</svg>
