<svg width="32" height="33" viewBox="0 0 32 33" fill="none" xmlns="http://www.w3.org/2000/svg">
<g clip-path="url(#clip0_2096_4598)">
<path d="M11.3721 20.8273C11.1166 20.5717 10.8766 20.2917 10.6599 19.9962C10.2988 19.5006 10.4077 18.8051 10.9044 18.444C11.3999 18.0829 12.0944 18.1917 12.4566 18.6873C12.5999 18.8851 12.761 19.0751 12.9421 19.2551C13.8344 20.1473 15.0199 20.6384 16.281 20.6384C17.5421 20.6384 18.7288 20.1473 19.6199 19.2551L25.731 13.144C27.5721 11.3029 27.5721 8.30619 25.731 6.46508C23.8899 4.62397 20.8933 4.62397 19.0521 6.46508L17.8766 7.64064C17.4421 8.07508 16.7399 8.07508 16.3055 7.64064C15.871 7.20619 15.871 6.50397 16.3055 6.06953L17.481 4.89397C20.1888 2.18508 24.5944 2.18508 27.3021 4.89397C30.0099 7.60175 30.0099 12.0073 27.3021 14.7151L21.191 20.8262C19.8799 22.1384 18.1355 22.8606 16.281 22.8606C14.4266 22.8606 12.6821 22.1384 11.3721 20.8273ZM9.61437 29.5273C11.4699 29.5273 13.2133 28.8051 14.5244 27.4929L15.6999 26.3173C16.1344 25.884 16.1344 25.1806 15.6999 24.7462C15.2666 24.3117 14.5633 24.3129 14.1288 24.7462L12.9521 25.9217C12.0599 26.814 10.8744 27.3051 9.61326 27.3051C8.35214 27.3051 7.16659 26.814 6.27437 25.9217C5.38214 25.0295 4.89103 23.844 4.89103 22.5829C4.89103 21.3217 5.38214 20.1351 6.27437 19.244L12.3855 13.1329C13.2777 12.2406 14.4633 11.7495 15.7244 11.7495C16.9855 11.7495 18.1721 12.2406 19.0633 13.1329C19.241 13.3117 19.4033 13.5017 19.5477 13.6995C19.9077 14.1962 20.6021 14.3073 21.0999 13.9451C21.5966 13.584 21.7066 12.8895 21.3455 12.3929C21.1344 12.1017 20.8955 11.8229 20.6355 11.5629C19.3233 10.2495 17.5788 9.5273 15.7244 9.5273C13.8699 9.5273 12.1255 10.2495 10.8144 11.5617L4.70437 17.6729C3.39214 18.984 2.66992 20.7284 2.66992 22.5829C2.66992 24.4373 3.39214 26.1817 4.70437 27.4929C6.01548 28.8051 7.75881 29.5273 9.61437 29.5273Z" fill="#0DAC8A"/>
</g>
<defs>
<clipPath id="clip0_2096_4598">
<rect width="26.6667" height="26.6667" fill="white" transform="translate(2.66675 2.86133)"/>
</clipPath>
</defs>
</svg>
