<svg width="32" height="33" viewBox="0 0 32 33" fill="none" xmlns="http://www.w3.org/2000/svg">
<g clip-path="url(#clip0_2096_4620)">
<path d="M16.0002 2.86133C13.3631 2.86133 10.7853 3.64331 8.59261 5.1084C6.39995 6.57349 4.69098 8.65587 3.68182 11.0922C2.67265 13.5286 2.4086 16.2095 2.92307 18.7959C3.43754 21.3823 4.70742 23.7581 6.57212 25.6228C8.43682 27.4875 10.8126 28.7573 13.399 29.2718C15.9854 29.7863 18.6663 29.5222 21.1027 28.5131C23.539 27.5039 25.6214 25.7949 27.0865 23.6023C28.5516 21.4096 29.3335 18.8317 29.3335 16.1947C29.3297 12.6596 27.9237 9.27045 25.4241 6.77079C22.9244 4.27114 19.5353 2.86515 16.0002 2.86133ZM11.5558 11.7502C12.1451 11.7502 12.7104 11.9843 13.1271 12.4011C13.5439 12.8178 13.778 13.3831 13.778 13.9724C13.778 15.0836 12.7835 15.0836 11.5558 15.0836C10.328 15.0836 9.33354 15.0836 9.33354 13.9724C9.33354 13.3831 9.56767 12.8178 9.98442 12.4011C10.4012 11.9843 10.9664 11.7502 11.5558 11.7502ZM22.2958 20.3569C20.5315 21.8641 18.3177 22.7448 16.0002 22.8613C13.6827 22.7448 11.469 21.8641 9.70465 20.3569C9.48482 20.1606 9.35195 19.8851 9.33528 19.5908C9.32703 19.4452 9.34755 19.2993 9.39567 19.1615C9.4438 19.0238 9.51859 18.8968 9.61576 18.788C9.71294 18.6791 9.83061 18.5905 9.96205 18.5271C10.0935 18.4637 10.2361 18.4269 10.3818 18.4186C10.676 18.402 10.9648 18.5028 11.1847 18.6991C12.5427 19.8414 14.2296 20.521 16.0002 20.6391C17.7719 20.5209 19.4597 19.8405 20.818 18.6969C20.927 18.5999 21.054 18.5252 21.1919 18.4773C21.3297 18.4294 21.4756 18.4091 21.6213 18.4175C21.767 18.426 21.9096 18.463 22.0409 18.5266C22.1723 18.5902 22.2898 18.679 22.3869 18.788C22.4839 18.897 22.5585 19.024 22.6065 19.1619C22.6544 19.2997 22.6747 19.4456 22.6662 19.5913C22.6578 19.737 22.6207 19.8796 22.5571 20.0109C22.4936 20.1423 22.4048 20.2599 22.2958 20.3569ZM20.4447 15.0836C19.2169 15.0836 18.2224 15.0836 18.2224 13.9724C18.2224 13.3831 18.4566 12.8178 18.8733 12.4011C19.2901 11.9843 19.8553 11.7502 20.4447 11.7502C21.034 11.7502 21.5993 11.9843 22.016 12.4011C22.4327 12.8178 22.6669 13.3831 22.6669 13.9724C22.6669 15.0836 21.6724 15.0836 20.4447 15.0836Z" fill="#0DAC8A"/>
</g>
<defs>
<clipPath id="clip0_2096_4620">
<rect width="26.6667" height="26.6667" fill="white" transform="translate(2.66675 2.86133)"/>
</clipPath>
</defs>
</svg>
