<svg width="32" height="33" viewBox="0 0 32 33" fill="none" xmlns="http://www.w3.org/2000/svg">
<g clip-path="url(#clip0_2096_4609)">
<path d="M16.0001 2.86133C13.363 2.86133 10.7851 3.64331 8.59248 5.1084C6.39983 6.57349 4.69086 8.65587 3.68169 11.0922C2.67253 13.5286 2.40848 16.2095 2.92295 18.7959C3.43742 21.3823 4.7073 23.7581 6.572 25.6228C8.4367 27.4875 10.8125 28.7573 13.3989 29.2718C15.9853 29.7863 18.6662 29.5222 21.1025 28.5131C23.5389 27.5039 25.6213 25.7949 27.0863 23.6023C28.5514 21.4096 29.3334 18.8317 29.3334 16.1947C29.3296 12.6596 27.9236 9.27045 25.424 6.77079C22.9243 4.27114 19.5351 2.86515 16.0001 2.86133ZM11.5556 11.7502C12.145 11.7502 12.7102 11.9843 13.127 12.4011C13.5437 12.8178 13.7779 13.3831 13.7779 13.9724C13.7779 15.0836 12.7834 15.0836 11.5556 15.0836C10.3279 15.0836 9.33342 15.0836 9.33342 13.9724C9.33342 13.3831 9.56755 12.8178 9.98429 12.4011C10.401 11.9843 10.9663 11.7502 11.5556 11.7502ZM22.3845 22.4913C22.1885 22.7107 21.9135 22.8433 21.6198 22.8602C21.3261 22.8771 21.0377 22.7768 20.8179 22.5813C19.4595 21.4378 17.7718 20.7574 16.0001 20.6391C14.2284 20.7573 12.5406 21.4377 11.1823 22.5813C10.9622 22.7773 10.6732 22.8778 10.379 22.8607C10.0848 22.8436 9.80939 22.7103 9.61342 22.4902C9.41745 22.2701 9.31696 21.9811 9.33405 21.6869C9.35113 21.3927 9.4844 21.1173 9.70453 20.9213C11.4688 19.4141 13.6826 18.5334 16.0001 18.4169C18.3176 18.5334 20.5313 19.4141 22.2956 20.9213C22.4047 21.0185 22.4935 21.1362 22.5569 21.2678C22.6204 21.3993 22.6573 21.5421 22.6656 21.6879C22.6738 21.8337 22.6533 21.9797 22.605 22.1176C22.5568 22.2555 22.4819 22.3825 22.3845 22.4913ZM20.4445 15.0836C19.2168 15.0836 18.2223 15.0836 18.2223 13.9724C18.2223 13.3831 18.4564 12.8178 18.8732 12.4011C19.2899 11.9843 19.8552 11.7502 20.4445 11.7502C21.0339 11.7502 21.5991 11.9843 22.0159 12.4011C22.4326 12.8178 22.6668 13.3831 22.6668 13.9724C22.6668 15.0836 21.6723 15.0836 20.4445 15.0836Z" fill="#0DAC8A"/>
</g>
<defs>
<clipPath id="clip0_2096_4609">
<rect width="26.6667" height="26.6667" fill="white" transform="translate(2.66675 2.86133)"/>
</clipPath>
</defs>
</svg>
