<svg width="15" height="17" viewBox="0 0 15 17" fill="none" xmlns="http://www.w3.org/2000/svg">
<path d="M13.0198 4.16158L10.6003 1.74075C9.68157 0.822694 8.46073 0.317139 7.16282 0.317139H4.0274C2.11281 0.317139 0.555176 1.87478 0.555176 3.78936V13.5116C0.555176 15.4262 2.11281 16.9838 4.0274 16.9838H10.9718C12.8864 16.9838 14.4441 15.4262 14.4441 13.5116V7.59839C14.4441 6.29908 13.9378 5.07964 13.0198 4.16158ZM12.0378 5.14422C12.2586 5.36436 12.4455 5.6095 12.5968 5.87339H9.58226C9.19893 5.87339 8.88781 5.56158 8.88781 5.17894V2.16367C9.1517 2.31506 9.39684 2.50186 9.61768 2.72269L12.0371 5.14353L12.0378 5.14422ZM13.0552 13.5123C13.0552 14.6609 12.1205 15.5956 10.9718 15.5956H4.0274C2.87879 15.5956 1.94406 14.6609 1.94406 13.5123V3.78936C1.94406 2.64075 2.87879 1.70603 4.0274 1.70603H7.16282C7.27601 1.70603 7.38851 1.71158 7.49962 1.722V5.17825C7.49962 6.32686 8.43434 7.26158 9.58295 7.26158H13.0392C13.0496 7.37269 13.0552 7.48519 13.0552 7.59839V13.5123ZM10.0739 11.5019C10.3455 11.7727 10.3455 12.2123 10.0739 12.4838L8.95379 13.6046C8.55309 14.0053 8.02601 14.206 7.49962 14.206C6.97323 14.206 6.44615 14.0053 6.04545 13.6046L4.92531 12.4838C4.65379 12.2123 4.65379 11.7727 4.92531 11.5019C5.19684 11.2303 5.63573 11.2303 5.90726 11.5019L6.80518 12.3998V9.34561C6.80518 8.96228 7.11559 8.65117 7.49962 8.65117C7.88365 8.65117 8.19407 8.96228 8.19407 9.34561V12.3998L9.09198 11.5019C9.36351 11.2303 9.8024 11.2303 10.0739 11.5019Z" fill="#0D0D26"/>
</svg>
