<svg width="21" height="21" viewBox="0 0 21 21" fill="none" xmlns="http://www.w3.org/2000/svg">
<g clip-path="url(#clip0_2170_2545)">
<path d="M17.1271 6.31836L19.8246 2.73753C20.2071 2.23003 20.2688 1.56003 19.9846 0.990859C19.7004 0.421693 19.1296 0.0683594 18.4929 0.0683594H3.49544C1.65711 0.0683594 0.162109 1.56336 0.162109 3.40169V19.235C0.162109 19.6959 0.535443 20.0684 0.995443 20.0684C1.45544 20.0684 1.82878 19.6959 1.82878 19.235V12.5684H18.4938C19.1304 12.5684 19.7013 12.2142 19.9854 11.6459C20.2696 11.0775 20.2079 10.4075 19.8254 9.89919L17.1271 6.31836ZM1.82878 10.9017V3.40169C1.82878 2.48253 2.57628 1.73503 3.49544 1.73503H18.4938L15.4188 5.81669C15.1954 6.11336 15.1954 6.52253 15.4188 6.81919L18.4938 10.9009H1.82878V10.9017Z" fill="#0D0D26"/>
</g>
<defs>
<clipPath id="clip0_2170_2545">
<rect width="20" height="20" fill="white" transform="translate(0.162109 0.0683594)"/>
</clipPath>
</defs>
</svg>
