<svg width="20" height="21" viewBox="0 0 20 21" fill="none" xmlns="http://www.w3.org/2000/svg">
<path d="M18.3332 12.7217V6.73503C18.3319 5.63036 17.8925 4.57132 17.1114 3.79021C16.3302 3.00909 15.2712 2.56968 14.1665 2.56836H5.83321C4.72855 2.56968 3.66951 3.00909 2.88839 3.79021C2.10728 4.57132 1.66786 5.63036 1.66654 6.73503V12.7217C1.11097 12.9174 0.642587 13.3034 0.344342 13.8113C0.046097 14.3192 -0.06276 14.9163 0.0370517 15.4968C0.136863 16.0773 0.438902 16.6038 0.889672 16.9829C1.34044 17.3621 1.91085 17.5695 2.49987 17.5684H17.4999C18.0889 17.5695 18.6593 17.3621 19.1101 16.9829C19.5608 16.6038 19.8629 16.0773 19.9627 15.4968C20.0625 14.9163 19.9537 14.3192 19.6554 13.8113C19.3572 13.3034 18.8888 12.9174 18.3332 12.7217ZM5.83321 4.23503H14.1665C14.8296 4.23503 15.4655 4.49842 15.9343 4.96726C16.4031 5.4361 16.6665 6.07198 16.6665 6.73503V12.5684H13.2074C12.965 12.5682 12.7255 12.6209 12.5056 12.7228C12.2857 12.8247 12.0906 12.9733 11.934 13.1584L11.7282 13.4017H8.27071L8.06571 13.1584C7.90913 12.9733 7.71409 12.8247 7.49417 12.7228C7.27425 12.6209 7.03475 12.5682 6.79237 12.5684H3.33321V6.73503C3.33321 6.07198 3.5966 5.4361 4.06544 4.96726C4.53428 4.49842 5.17017 4.23503 5.83321 4.23503ZM17.4999 15.9017H2.49987C2.27886 15.9017 2.0669 15.8139 1.91062 15.6576C1.75434 15.5013 1.66654 15.2894 1.66654 15.0684C1.66654 14.8473 1.75434 14.6354 1.91062 14.4791C2.0669 14.3228 2.27886 14.235 2.49987 14.235H6.79321L6.99821 14.4784C7.15469 14.6633 7.34961 14.8118 7.56937 14.9137C7.78913 15.0156 8.02847 15.0684 8.27071 15.0684H11.7282C11.9706 15.0685 12.2101 15.0158 12.43 14.9139C12.6499 14.812 12.845 14.6634 13.0015 14.4784L13.2074 14.235H17.4999C17.7209 14.235 17.9328 14.3228 18.0891 14.4791C18.2454 14.6354 18.3332 14.8473 18.3332 15.0684C18.3332 15.2894 18.2454 15.5013 18.0891 15.6576C17.9328 15.8139 17.7209 15.9017 17.4999 15.9017Z" fill="#0D0D26"/>
</svg>
