<svg width="25" height="25" viewBox="0 0 25 25" fill="none" xmlns="http://www.w3.org/2000/svg">
<g clip-path="url(#clip0_2096_13991)">
<path d="M19.5964 10.7836C19.5964 16.6169 12.0964 21.6169 12.0964 21.6169C12.0964 21.6169 4.59644 16.6169 4.59644 10.7836C4.59644 8.79445 5.38661 6.88679 6.79313 5.48027C8.19966 4.07375 10.1073 3.28357 12.0964 3.28357C14.0856 3.28357 15.9932 4.07375 17.3997 5.48027C18.8063 6.88679 19.5964 8.79445 19.5964 10.7836Z" stroke="black" stroke-width="2" stroke-linecap="round" stroke-linejoin="round"/>
<path d="M12.0964 13.2836C13.4771 13.2836 14.5964 12.1643 14.5964 10.7836C14.5964 9.40286 13.4771 8.28357 12.0964 8.28357C10.7157 8.28357 9.59644 9.40286 9.59644 10.7836C9.59644 12.1643 10.7157 13.2836 12.0964 13.2836Z" stroke="black" stroke-width="2" stroke-linecap="round" stroke-linejoin="round"/>
</g>
<defs>
<clipPath id="clip0_2096_13991">
<rect width="20" height="20" fill="white" transform="translate(2.09644 2.4502)"/>
</clipPath>
</defs>
</svg>
