<svg width="20" height="21" viewBox="0 0 20 21" fill="none" xmlns="http://www.w3.org/2000/svg">
<g clip-path="url(#clip0_2170_2554)">
<path d="M10 10.0684C10.9889 10.0684 11.9556 9.77512 12.7779 9.22571C13.6001 8.6763 14.241 7.89541 14.6194 6.98178C14.9978 6.06815 15.0969 5.06282 14.9039 4.09291C14.711 3.12301 14.2348 2.23209 13.5355 1.53283C12.8363 0.833565 11.9454 0.357361 10.9755 0.164435C10.0055 -0.0284909 9.00021 0.0705258 8.08658 0.448964C7.17295 0.827402 6.39206 1.46826 5.84265 2.29051C5.29324 3.11276 5 4.07945 5 5.06836C5.00132 6.39404 5.52853 7.66504 6.46593 8.60243C7.40332 9.53983 8.67432 10.067 10 10.0684ZM10 1.73503C10.6593 1.73503 11.3037 1.93052 11.8519 2.2968C12.4001 2.66307 12.8273 3.18366 13.0796 3.79275C13.3319 4.40184 13.3979 5.07206 13.2693 5.71866C13.1407 6.36527 12.8232 6.95921 12.357 7.42538C11.8908 7.89156 11.2969 8.20903 10.6503 8.33765C10.0037 8.46626 9.33348 8.40025 8.72439 8.14796C8.1153 7.89567 7.59471 7.46843 7.22843 6.92026C6.86216 6.3721 6.66667 5.72763 6.66667 5.06836C6.66667 4.18431 7.01786 3.33646 7.64298 2.71134C8.2681 2.08622 9.11594 1.73503 10 1.73503Z" fill="#0D0D26"/>
<path d="M10 11.7349C8.01155 11.7371 6.10518 12.528 4.69914 13.934C3.29309 15.34 2.50221 17.2464 2.5 19.2349C2.5 19.4559 2.5878 19.6678 2.74408 19.8241C2.90036 19.9804 3.11232 20.0682 3.33333 20.0682C3.55435 20.0682 3.76631 19.9804 3.92259 19.8241C4.07887 19.6678 4.16667 19.4559 4.16667 19.2349C4.16667 17.6878 4.78125 16.204 5.87521 15.1101C6.96917 14.0161 8.4529 13.4015 10 13.4015C11.5471 13.4015 13.0308 14.0161 14.1248 15.1101C15.2188 16.204 15.8333 17.6878 15.8333 19.2349C15.8333 19.4559 15.9211 19.6678 16.0774 19.8241C16.2337 19.9804 16.4457 20.0682 16.6667 20.0682C16.8877 20.0682 17.0996 19.9804 17.2559 19.8241C17.4122 19.6678 17.5 19.4559 17.5 19.2349C17.4978 17.2464 16.7069 15.34 15.3009 13.934C13.8948 12.528 11.9884 11.7371 10 11.7349Z" fill="#0D0D26"/>
</g>
<defs>
<clipPath id="clip0_2170_2554">
<rect width="20" height="20" fill="white" transform="translate(0 0.0683594)"/>
</clipPath>
</defs>
</svg>
