<svg width="16" height="16" viewBox="0 0 16 16" fill="none" xmlns="http://www.w3.org/2000/svg">
<path d="M15.8048 0.195679C15.6798 0.0706986 15.5102 0.000488281 15.3334 0.000488281C15.1567 0.000488281 14.9871 0.0706986 14.8621 0.195679L8.0001 7.05768L1.1381 0.195679C1.01308 0.0706986 0.843545 0.000488281 0.666768 0.000488281C0.489992 0.000488281 0.320454 0.0706986 0.195435 0.195679C0.0704544 0.320698 0.000244141 0.490236 0.000244141 0.667013C0.000244141 0.843789 0.0704544 1.01333 0.195435 1.13835L7.05744 8.00035L0.195435 14.8623C0.0704544 14.9874 0.000244141 15.1569 0.000244141 15.3337C0.000244141 15.5105 0.0704544 15.68 0.195435 15.805C0.320454 15.93 0.489992 16.0002 0.666768 16.0002C0.843545 16.0002 1.01308 15.93 1.1381 15.805L8.0001 8.94301L14.8621 15.805C14.9871 15.93 15.1567 16.0002 15.3334 16.0002C15.5102 16.0002 15.6798 15.93 15.8048 15.805C15.9298 15.68 16 15.5105 16 15.3337C16 15.1569 15.9298 14.9874 15.8048 14.8623L8.94277 8.00035L15.8048 1.13835C15.9298 1.01333 16 0.843789 16 0.667013C16 0.490236 15.9298 0.320698 15.8048 0.195679Z" fill="#858D9D"/>
</svg>
