<svg width="25" height="25" viewBox="0 0 25 25" fill="none" xmlns="http://www.w3.org/2000/svg">
<g clip-path="url(#clip0_2096_14001)">
<path d="M4.02497 4.16705L4.89997 3.40872C5.9083 2.40038 7.54163 2.40038 8.54997 3.40872C8.57497 3.43372 10.1166 5.44205 10.1166 5.44205C11.0666 6.44205 11.0666 8.01705 10.1166 9.00872L9.14997 10.2254C10.3666 12.9837 12.2583 14.8837 14.925 16.0171L16.1416 15.0421C17.1333 14.0837 18.7166 14.0837 19.7083 15.0421C19.7083 15.0421 21.7166 16.5837 21.7416 16.6087C22.75 17.6171 22.75 19.2504 21.7833 20.2171L20.95 21.1754C19.9916 22.1337 18.7 22.6587 17.3 22.6587C10.9333 22.6587 2.49997 14.2171 2.49997 7.85872C2.49997 6.46705 3.02497 5.16705 4.02497 4.17538V4.16705ZM17.3 20.9837C18.25 20.9837 19.125 20.6337 19.725 20.0254L20.5583 19.0671C20.9 18.7254 20.9166 18.1671 20.5916 17.8087C20.5916 17.8087 18.6 16.2754 18.575 16.2504C18.2333 15.9087 17.6333 15.9087 17.2833 16.2504C17.2583 16.2754 15.5833 17.6171 15.5833 17.6171C15.35 17.8004 15.0416 17.8504 14.7666 17.7421C11.3166 16.4254 8.84163 13.9587 7.41663 10.4004C7.3083 10.1254 7.34997 9.80872 7.54163 9.56705C7.54163 9.56705 8.8833 7.88372 8.89997 7.86705C9.2583 7.50872 9.2583 6.93372 8.89997 6.57538C8.87497 6.55038 7.34163 4.55872 7.34163 4.55872C6.9833 4.23372 6.42496 4.24205 6.04163 4.62538L5.16663 5.38372C4.52497 6.02538 4.16663 6.90038 4.16663 7.85038C4.16663 13.6504 12.3083 20.9837 17.3 20.9837Z" fill="#0D0D26"/>
</g>
<defs>
<clipPath id="clip0_2096_14001">
<rect width="20" height="20" fill="white" transform="matrix(-1 0 0 1 22.5 2.65039)"/>
</clipPath>
</defs>
</svg>
