<svg width="25" height="25" viewBox="0 0 25 25" fill="none" xmlns="http://www.w3.org/2000/svg">
<g clip-path="url(#clip0_2096_4480)">
<path d="M5.92683 2.50781H8.42683C10.2678 2.50781 11.7601 4.0002 11.7601 5.84113V8.34113C11.7601 10.1821 10.2678 11.6745 8.42683 11.6745H5.92683C4.08589 11.6745 2.59351 10.1821 2.59351 8.34113V5.84113C2.59351 4.0002 4.08589 2.50781 5.92683 2.50781Z" fill="#0DAC8A"/>
<path d="M16.7602 2.50781H19.2602C21.1011 2.50781 22.5935 4.0002 22.5935 5.84113V8.34113C22.5935 10.1821 21.1011 11.6745 19.2602 11.6745H16.7602C14.9192 11.6745 13.4269 10.1821 13.4269 8.34113V5.84113C13.4268 4.0002 14.9192 2.50781 16.7602 2.50781Z" fill="#0DAC8A"/>
<path d="M5.92683 13.3408H8.42683C10.2678 13.3408 11.7601 14.8332 11.7601 16.6741V19.1741C11.7601 21.0151 10.2678 22.5075 8.42683 22.5075H5.92683C4.08589 22.5075 2.59351 21.0151 2.59351 19.1742V16.6742C2.59351 14.8332 4.08589 13.3408 5.92683 13.3408Z" fill="#0DAC8A"/>
<path d="M16.7601 13.3408H19.2601C21.101 13.3408 22.5934 14.8332 22.5934 16.6741V19.1741C22.5934 21.0151 21.101 22.5075 19.2601 22.5075H16.7601C14.9191 22.5075 13.4268 21.0151 13.4268 19.1742V16.6742C13.4267 14.8332 14.9191 13.3408 16.7601 13.3408Z" fill="#0DAC8A"/>
</g>
<defs>
<clipPath id="clip0_2096_4480">
<rect width="20" height="20" fill="white" transform="translate(2.59351 2.50781)"/>
</clipPath>
</defs>
</svg>
