<svg width="25" height="25" viewBox="0 0 25 25" fill="none" xmlns="http://www.w3.org/2000/svg">
<g clip-path="url(#clip0_2096_8329)">
<path d="M14.361 16.4423L20.0935 10.7098V5.50814C20.0935 3.6698 18.5985 2.17481 16.7602 2.17481H8.42684C6.58851 2.17397 5.09351 3.66897 5.09351 5.5073V10.7098L10.8252 16.4423C11.7702 17.3865 13.4168 17.3865 14.361 16.4423ZM8.69267 9.28814C8.35601 8.9748 8.33601 8.44731 8.64934 8.11064C8.96351 7.77314 9.49184 7.75564 9.82684 8.06731L11.3693 9.50147C11.5935 9.72481 11.9243 9.72564 12.1285 9.52147L15.3477 6.41814C15.6793 6.09814 16.2068 6.10897 16.526 6.43897C16.846 6.7698 16.836 7.29814 16.5052 7.61731L13.296 10.7106C12.876 11.1306 12.3202 11.3406 11.7635 11.3406C11.2027 11.3406 10.6402 11.1273 10.2127 10.7006L8.69267 9.28814ZM22.5935 12.764V18.0073C22.5935 20.3048 20.7243 22.174 18.4268 22.174H6.76017C4.46267 22.174 2.59351 20.3048 2.59351 18.0073V12.764C2.59351 12.1423 2.74684 11.5373 3.01017 10.9831L9.64767 17.6215C10.4352 18.4081 11.481 18.8415 12.5943 18.8415C13.7077 18.8415 14.7535 18.4081 15.5402 17.6215L22.1777 10.9831C22.441 11.5373 22.5935 12.1431 22.5935 12.764Z" fill="#0DAC8A"/>
</g>
<defs>
<clipPath id="clip0_2096_8329">
<rect width="20" height="20" fill="white" transform="translate(2.59351 2.17383)"/>
</clipPath>
</defs>
</svg>
