<svg width="18" height="17" viewBox="0 0 18 17" fill="none" xmlns="http://www.w3.org/2000/svg">
<path d="M7.83317 10.1095L6.0415 8.31779C5.88873 8.16501 5.69428 8.08862 5.45817 8.08862C5.22206 8.08862 5.02761 8.16501 4.87484 8.31779C4.72206 8.47057 4.64567 8.66501 4.64567 8.90112C4.64567 9.13723 4.72206 9.33168 4.87484 9.48446L7.24984 11.8595C7.4165 12.0261 7.61095 12.1095 7.83317 12.1095C8.05539 12.1095 8.24984 12.0261 8.4165 11.8595L13.1248 7.15112C13.2776 6.99834 13.354 6.8039 13.354 6.56779C13.354 6.33168 13.2776 6.13723 13.1248 5.98446C12.9721 5.83168 12.7776 5.75529 12.5415 5.75529C12.3054 5.75529 12.1109 5.83168 11.9582 5.98446L7.83317 10.1095ZM8.99984 16.9428C7.84706 16.9428 6.76373 16.724 5.74984 16.2865C4.73595 15.849 3.854 15.2553 3.104 14.5053C2.354 13.7553 1.76025 12.8733 1.32275 11.8595C0.885254 10.8456 0.666504 9.76223 0.666504 8.60946C0.666504 7.45668 0.885254 6.37334 1.32275 5.35946C1.76025 4.34557 2.354 3.46362 3.104 2.71362C3.854 1.96362 4.73595 1.36987 5.74984 0.932373C6.76373 0.494873 7.84706 0.276123 8.99984 0.276123C10.1526 0.276123 11.2359 0.494873 12.2498 0.932373C13.2637 1.36987 14.1457 1.96362 14.8957 2.71362C15.6457 3.46362 16.2394 4.34557 16.6769 5.35946C17.1144 6.37334 17.3332 7.45668 17.3332 8.60946C17.3332 9.76223 17.1144 10.8456 16.6769 11.8595C16.2394 12.8733 15.6457 13.7553 14.8957 14.5053C14.1457 15.2553 13.2637 15.849 12.2498 16.2865C11.2359 16.724 10.1526 16.9428 8.99984 16.9428Z" fill="#069A6E"/>
</svg>
