<svg width="32" height="33" viewBox="0 0 32 33" fill="none" xmlns="http://www.w3.org/2000/svg">
<g clip-path="url(#clip0_2096_4576)">
<path d="M2.66664 9.52864L2.66664 11.8953C2.67137 12.3926 2.8411 12.8742 3.1492 13.2645C3.4573 13.6549 3.8863 13.9319 4.36887 14.052C4.83869 14.1806 5.25322 14.4601 5.54871 14.8473C5.84419 15.2346 6.00424 15.7082 6.00424 16.1953C6.00424 16.6824 5.84419 17.156 5.54871 17.5433C5.25322 17.9306 4.83869 18.21 4.36887 18.3386C3.8863 18.4588 3.4573 18.7357 3.1492 19.1261C2.8411 19.5164 2.67137 19.998 2.66664 20.4953L2.66664 22.862C2.66664 23.746 3.01783 24.5939 3.64295 25.219C4.26808 25.8441 5.11592 26.1953 5.99998 26.1953L10.4444 26.1953L10.4444 21.7509C10.4444 21.4562 10.5615 21.1736 10.7699 20.9652C10.9782 20.7568 11.2608 20.6398 11.5555 20.6398C11.8502 20.6398 12.1328 20.7568 12.3412 20.9652C12.5496 21.1736 12.6666 21.4562 12.6666 21.7509L12.6666 26.1953L23.7778 26.1953C25.2506 26.1935 26.6627 25.6077 27.7042 24.5662C28.7457 23.5247 29.3315 22.1126 29.3333 20.6398L29.3333 20.4953C29.3286 19.998 29.1589 19.5164 28.8508 19.1261C28.5427 18.7357 28.1137 18.4588 27.6311 18.3386C27.1613 18.21 26.7467 17.9306 26.4513 17.5433C26.1558 17.156 25.9957 16.6824 25.9957 16.1953C25.9957 15.7082 26.1558 15.2346 26.4513 14.8473C26.7467 14.4601 27.1613 14.1806 27.6311 14.052C28.1137 13.9319 28.5427 13.6549 28.8508 13.2645C29.1589 12.8742 29.3286 12.3926 29.3333 11.8953L29.3333 11.7509C29.3315 10.278 28.7457 8.86593 27.7042 7.82445C26.6627 6.78296 25.2506 6.19708 23.7778 6.19531L12.6666 6.19531L12.6666 10.6398C12.6666 10.9344 12.5496 11.2171 12.3412 11.4254C12.1328 11.6338 11.8502 11.7509 11.5555 11.7509C11.2608 11.7509 10.9782 11.6338 10.7699 11.4254C10.5615 11.2171 10.4444 10.9344 10.4444 10.6398L10.4444 6.19531L5.99998 6.19531C5.11592 6.19531 4.26808 6.5465 3.64296 7.17162C3.01783 7.79674 2.66664 8.64459 2.66664 9.52864ZM12.6666 15.0842L12.6666 17.3064C12.6666 17.6011 12.5496 17.8837 12.3412 18.0921C12.1328 18.3005 11.8502 18.4175 11.5555 18.4175C11.2608 18.4175 10.9782 18.3005 10.7699 18.0921C10.5615 17.8837 10.4444 17.6011 10.4444 17.3064L10.4444 15.0842C10.4444 14.7895 10.5615 14.5069 10.7699 14.2985C10.9782 14.0902 11.2608 13.9731 11.5555 13.9731C11.8502 13.9731 12.1328 14.0902 12.3412 14.2985C12.5496 14.5069 12.6666 14.7895 12.6666 15.0842Z" fill="#0DAC8A"/>
</g>
<defs>
<clipPath id="clip0_2096_4576">
<rect width="26.6667" height="26.6667" fill="white" transform="translate(29.3335 2.86133) rotate(90)"/>
</clipPath>
</defs>
</svg>
